<?xml version="1.0" encoding="UTF-8" standalone="no"?>
<!-- Created with Inkscape (http://www.inkscape.org/) -->

<svg
   version="1.1"
   id="svg1"
   width="1379"
   height="752"
   viewBox="0 0 1379 752"
   sodipodi:docname="logo-website.svg"
   inkscape:version="1.4.2 (f4327f4, 2025-05-13)"
   xmlns:inkscape="http://www.inkscape.org/namespaces/inkscape"
   xmlns:sodipodi="http://sodipodi.sourceforge.net/DTD/sodipodi-0.dtd"
   xmlns="http://www.w3.org/2000/svg"
   xmlns:svg="http://www.w3.org/2000/svg">
  <defs
     id="defs1">
    <rect
       x="289.90427"
       y="491.28072"
       width="847.33765"
       height="142.03364"
       id="rect5" />
  </defs>
  <sodipodi:namedview
     id="namedview1"
     pagecolor="#ffffff"
     bordercolor="#000000"
     borderopacity="0.25"
     inkscape:showpageshadow="2"
     inkscape:pageopacity="0.0"
     inkscape:pagecheckerboard="0"
     inkscape:deskcolor="#d1d1d1"
     inkscape:zoom="1.0279255"
     inkscape:cx="654.71669"
     inkscape:cy="356.54334"
     inkscape:window-width="1920"
     inkscape:window-height="991"
     inkscape:window-x="-9"
     inkscape:window-y="-9"
     inkscape:window-maximized="1"
     inkscape:current-layer="g1" />
  <g
     inkscape:groupmode="layer"
     inkscape:label="Image"
     id="g1">
    <ellipse
       style="fill:none;stroke:#000000;stroke-width:8;stroke-opacity:1;stroke-dasharray:none"
       id="path4-8"
       cx="968.43756"
       cy="395.31622"
       rx="55.989548"
       ry="56.505455"
       inkscape:label="tire-in" />
    <path
       style="fill:none;stroke:#000000;stroke-width:15;stroke-opacity:1;stroke-dasharray:none"
       d="m 1068.3039,429.93556 12.3821,-6.87897 11.1783,-6.70699 8.9427,-11.69425 3.2675,-6.36305 2.2357,-10.83437 0.3439,-8.77069 -0.1719,-9.63056 -1.3758,-6.36304 -8.0828,-22.35665 -3.4395,-6.36305 -3.7834,-9.63055 -2.0637,-9.11464 1.0318,-8.42673 2.5796,-9.28661 2.9236,-5.50318 -8.5987,-3.26751 -13.242,-2.06369 -17.3694,-2.06369 -18.0573,-3.95541 -25.2802,-4.98725 -15.99364,-4.98725 -27.17193,-11.17833 -19.43309,-10.31845 -25.62416,-10.49043 -39.89802,-9.80253 -31.29931,-8.08279 -30.95536,-4.12738 -26.656,-1.89171 -26.99995,-1.3758 -34.39485,0.17198 -21.66875,1.03184 -31.98721,4.81528 -20.12098,6.36305 -25.28021,11.00635 -22.87257,9.63055 -22.35665,14.44584 -22.52863,13.07004 -19.94901,12.72609 -15.64965,7.91082 -11.00635,4.12738 -22.7006,2.57961 -33.70695,4.47133 -29.40759,3.26751 -45.91712,7.73884 -22.35665,3.61146 -22.70059,5.3312 -19.43309,8.42674 -14.78978,6.87897 -9.45859,7.39489 -6.87897,7.05094 -2.40763,6.19107 -2.57962,6.0191 -1.20382,6.36305 -0.85987,14.78978 3.26751,15.9936 3.26751,10.49043 1.89172,8.42674 -0.34395,6.87897 -1.03185,3.61146 -0.68789,2.23566 -1.3758,1.89172 -2.06369,3.61146 -0.85987,2.57961 0.6879,2.40764 1.71974,1.71974 4.64331,1.71974 4.47133,-0.17197 41.78973,-1.03185 -47.63686,0.85987 -5.67515,-3.78343 2.23567,-7.22292 3.61146,-7.56686 0.68789,-6.36305 -1.03184,-5.50317 -2.06369,-7.73884 -3.09554,-12.21017 -2.32165,-11.30731 1.16083,-15.95061 0.25796,-1.59076 13.62344,2.99171 7.90427,0.1216 6.56663,-0.97283 7.05304,-0.85123 6.93143,-0.60802 7.29625,-1.33765 7.05304,-0.97283 7.17465,-1.82406 4.74256,-1.70246 4.01293,8.7555 26.14489,74.30013 7.41786,-0.85123 30.15782,-76.85382 5.837,0.1216 28.82018,79.40751 9.72833,-0.36481 39.03493,-112.36223"
       id="path1" />
    <path
       style="fill:none;stroke:#000000;stroke-width:15;stroke-opacity:1;stroke-dasharray:none"
       d="m 511.45134,452.63616 47.20693,-119.00617 1.20382,-3.09553 1.9777,-2.75159 2.57961,-1.54777 2.6656,-0.51592 2.57962,0.42994 2.6656,2.57961 3.18152,4.12738 33.96491,80.39795"
       id="path2" />
    <path
       style="fill:none;stroke:#000000;stroke-width:15;stroke-opacity:1;stroke-dasharray:none"
       d="m 554.4449,449.88457 78.59222,-0.51592 8.66793,-2.83825 7.29624,-4.13454 5.95861,-4.01294 4.49935,-3.64812 3.64812,-8.51229 3.16171,-5.837 2.31048,-18.60543 0.48642,-5.837 0.24321,-6.32342 -53.14101,-76.24579 53.0194,76.12419 72.71928,-113.21345 6.52496,-8.52074 3.95541,-4.81528 4.98725,-4.12738 4.55732,-3.26751 7.48088,-2.57962 7.65285,-1.20382 7.39489,-1.03184 8.77069,-0.25796 38.95216,4.21337 49.70055,10.06049 11.09234,3.43948 10.31845,2.92356 7.48088,2.49363 5.41719,3.26751 0.17197,3.86942 -1.20382,4.90127 -3.00955,4.6433 -7.05094,5.93311 -7.65285,5.3312 -13.84393,3.26751 -28.48325,0.40208 -53.26261,0.48642 -10.34633,1.7771 -9.20063,3.18153 -6.36304,3.26751 -7.56687,4.6433 -5.41719,5.93311 -5.07324,5.24521 -4.55731,4.98726 -3.00955,3.26751 -1.37579,4.55731 -1.28981,3.52548 -1.80573,4.04139 -2.06369,5.07324 -1.97771,9.37259 -0.85987,4.29936 0.25797,20.37895 1.46178,7.73884 1.71974,7.22291 2.23566,4.38535 3.52547,5.93311 3.86942,5.50317 5.50318,6.0191 14.35985,13.24202 9.28661,4.38534 9.88851,3.3535 12.7261,2.6656 7.13693,0.77388 5.93311,0.086 7.82482,0.086 c 0,0 4.64331,-0.51592 5.50318,-0.51592 0.85987,0 11.26431,-2.75159 11.26431,-2.75159 l 9.28661,-3.86942 9.54457,-6.19107 0.77388,-3.09553 -1.54777,-56.23558 -47.9808,0.85988"
       id="path3" />
    <ellipse
       style="fill:none;stroke:#000000;stroke-width:11;stroke-opacity:1;stroke-dasharray:none"
       id="path4"
       cx="968.2149"
       cy="394.85278"
       rx="75.536911"
       ry="76.224792"
       inkscape:label="tire-out" />
    <path
       style="fill:none;stroke:#000000;stroke-width:8;stroke-opacity:1;stroke-dasharray:none"
       d="m 925.22132,430.9674 26.82798,-23.38849 2.75159,-2.23566 -2.40764,-9.63056 -40.06999,-4.29936 39.72604,4.29936 2.92357,-11.86622 -32.67511,-20.46493 32.50313,20.12098 8.42674,-4.81528 -9.63056,-37.83433 9.97451,37.83433 10.31845,0.85987 8.59871,-39.03815 -8.59871,38.86618 7.56687,5.50317 33.191,-20.98085 -33.191,20.98085 3.26751,11.3503 39.21009,-3.43948 -39.38207,3.26751 -2.40764,8.77068 28.89171,25.96811 -28.89171,-26.14008 -8.77068,7.39489 15.13373,35.42669 -15.13373,-35.77064 -9.63056,-1.03184 -15.47768,37.3184 15.64965,-37.49038 -9.45858,-4.98725"
       id="path5"
       inkscape:label="tire-line" />
    <text
       xml:space="preserve"
       id="text5"
       style="text-align:start;writing-mode:lr-tb;direction:ltr;white-space:pre;shape-inside:url(#rect5);display:inline;fill:#000000;fill-opacity:1;stroke:#000000;stroke-width:0.537948;stroke-dasharray:none;stroke-opacity:1"
       transform="matrix(9.9859733,0,0,8.6510674,-2588.258,-3749.8705)"><tspan
         x="289.9043"
         y="502.22921"
         id="tspan1">WAYGO.GE
</tspan></text>
  </g>
</svg>
